<svg xmlns="http://www.w3.org/2000/svg" xmlns:xlink="http://www.w3.org/1999/xlink" version="1.1" width="256" height="256" viewBox="0 0 256 256" xml:space="preserve">
<g style="stroke: none; stroke-width: 0; stroke-dasharray: none; stroke-linecap: butt; stroke-linejoin: miter; stroke-miterlimit: 10; fill: none; fill-rule: nonzero; opacity: 1;" transform="translate(1.4065934065934016 1.4065934065934016) scale(2.81 2.81)">
	<path d="M 4.521 40.869 v 40.289 c 0 1.723 1.397 3.12 3.12 3.12 h 72.511 c 1.723 0 3.12 -1.397 3.12 -3.12 V 40.869 H 4.521 z" style="stroke: none; stroke-width: 1; stroke-dasharray: none; stroke-linecap: butt; stroke-linejoin: miter; stroke-miterlimit: 10; fill: rgb(73,137,245); fill-rule: nonzero; opacity: 1;" transform=" matrix(1 0 0 1 0 0) " stroke-linecap="round"/>
	<linearGradient id="SVGID_1" gradientUnits="userSpaceOnUse" x1="4.5651" y1="59.06" x2="83.228" y2="59.06">
<stop offset="3%" style="stop-color:rgb(64,121,216);stop-opacity: 1"/>
<stop offset="100%" style="stop-color:rgb(73,137,245);stop-opacity: 1"/>
</linearGradient>
<path d="M 5.011 33.843 c -0.285 2.534 -0.446 9.597 -0.446 10.269 l 38.76 40.166 h 35.916 c 2.199 -0.006 3.981 -1.787 3.987 -3.987 V 33.843 H 5.011 z" style="stroke: none; stroke-width: 1; stroke-dasharray: none; stroke-linecap: butt; stroke-linejoin: miter; stroke-miterlimit: 10; fill: url(#SVGID_1); fill-rule: nonzero; opacity: 1;" transform=" matrix(1 0 0 1 0 0) " stroke-linecap="round"/>
	<path d="M 22.503 35.254 h 22.5 V 5.724 H 25.872 L 22.503 35.254 z" style="stroke: none; stroke-width: 1; stroke-dasharray: none; stroke-linecap: butt; stroke-linejoin: miter; stroke-miterlimit: 10; fill: rgb(63,81,181); fill-rule: nonzero; opacity: 1;" transform=" matrix(1 0 0 1 0 0) " stroke-linecap="round"/>
	<path d="M 67.503 35.254 h -22.5 V 5.724 h 19.131 L 67.503 35.254 z M 83.271 11.321 l 0.028 0.101 C 83.292 11.387 83.279 11.354 83.271 11.321 z" style="stroke: none; stroke-width: 1; stroke-dasharray: none; stroke-linecap: butt; stroke-linejoin: miter; stroke-miterlimit: 10; fill: rgb(123,171,247); fill-rule: nonzero; opacity: 1;" transform=" matrix(1 0 0 1 0 0) " stroke-linecap="round"/>
	<path d="M 83.299 11.421 l -0.028 -0.101 c -0.713 -3.266 -3.604 -5.596 -6.948 -5.598 h -12.19 L 67.5 35.254 H 90 L 83.299 11.421 z" style="stroke: none; stroke-width: 1; stroke-dasharray: none; stroke-linecap: butt; stroke-linejoin: miter; stroke-miterlimit: 10; fill: rgb(63,81,181); fill-rule: nonzero; opacity: 1;" transform=" matrix(1 0 0 1 0 0) " stroke-linecap="round"/>
	<path d="M 6.734 11.321 l -0.028 0.101 C 6.713 11.387 6.726 11.354 6.734 11.321 z" style="stroke: none; stroke-width: 1; stroke-dasharray: none; stroke-linecap: butt; stroke-linejoin: miter; stroke-miterlimit: 10; fill: rgb(123,171,247); fill-rule: nonzero; opacity: 1;" transform=" matrix(1 0 0 1 0 0) " stroke-linecap="round"/>
	<path d="M 6.705 11.421 l 0.028 -0.101 c 0.713 -3.266 3.604 -5.596 6.948 -5.598 h 12.191 L 22.5 35.254 H 0 L 6.705 11.421 z" style="stroke: none; stroke-width: 1; stroke-dasharray: none; stroke-linecap: butt; stroke-linejoin: miter; stroke-miterlimit: 10; fill: rgb(123,171,247); fill-rule: nonzero; opacity: 1;" transform=" matrix(1 0 0 1 0 0) " stroke-linecap="round"/>
	<path d="M 22.541 35.247 c 0 6.21 -5.034 11.244 -11.244 11.244 S 0.053 41.456 0.053 35.247 H 22.541 z" style="stroke: none; stroke-width: 1; stroke-dasharray: none; stroke-linecap: butt; stroke-linejoin: miter; stroke-miterlimit: 10; fill: rgb(112,155,224); fill-rule: evenodd; opacity: 1;" transform=" matrix(1 0 0 1 0 0) " stroke-linecap="round"/>
	<path d="M 45.028 35.247 c 0 6.21 -5.034 11.244 -11.244 11.244 s -11.244 -5.034 -11.244 -11.244 H 45.028 z" style="stroke: none; stroke-width: 1; stroke-dasharray: none; stroke-linecap: butt; stroke-linejoin: miter; stroke-miterlimit: 10; fill: rgb(60,75,166); fill-rule: evenodd; opacity: 1;" transform=" matrix(1 0 0 1 0 0) " stroke-linecap="round"/>
	<path d="M 67.515 35.247 c 0 6.21 -5.034 11.244 -11.244 11.244 s -11.244 -5.034 -11.244 -11.244 H 67.515 z" style="stroke: none; stroke-width: 1; stroke-dasharray: none; stroke-linecap: butt; stroke-linejoin: miter; stroke-miterlimit: 10; fill: rgb(112,155,224); fill-rule: evenodd; opacity: 1;" transform=" matrix(1 0 0 1 0 0) " stroke-linecap="round"/>
	<path d="M 90 35.247 c 0 6.21 -5.034 11.244 -11.244 11.244 c -6.21 0 -11.244 -5.034 -11.244 -11.244 H 90 z" style="stroke: none; stroke-width: 1; stroke-dasharray: none; stroke-linecap: butt; stroke-linejoin: miter; stroke-miterlimit: 10; fill: rgb(60,75,166); fill-rule: evenodd; opacity: 1;" transform=" matrix(1 0 0 1 0 0) " stroke-linecap="round"/>
	<path d="M 78.757 65.709 c -0.04 -0.535 -0.106 -1.024 -0.2 -1.649 H 66.292 c 0 1.715 0 3.587 -0.007 5.304 h 7.105 c -0.305 1.615 -1.241 3.043 -2.601 3.966 c 0 0 0 -0.03 -0.005 -0.03 c -0.87 0.571 -1.849 0.953 -2.876 1.122 c -1.029 0.188 -2.084 0.184 -3.112 -0.014 c -1.043 -0.216 -2.031 -0.644 -2.902 -1.258 c -1.286 -0.912 -2.277 -2.179 -2.853 -3.646 c -0.044 -0.114 -0.085 -0.229 -0.126 -0.346 v -0.013 l 0.011 -0.008 c -0.559 -1.641 -0.56 -3.42 -0.004 -5.062 c 0.392 -1.152 1.037 -2.201 1.887 -3.07 c 1.995 -2.064 4.976 -2.84 7.724 -2.011 c 1.054 0.323 2.017 0.89 2.811 1.655 l 2.397 -2.397 c 0.423 -0.427 0.862 -0.841 1.269 -1.282 c -1.215 -1.134 -2.642 -2.017 -4.199 -2.6 c -2.833 -1.027 -5.932 -1.054 -8.783 -0.077 c -0.099 0.034 -0.198 0.069 -0.296 0.106 c -3.075 1.156 -5.605 3.423 -7.09 6.354 c -0.524 1.037 -0.906 2.141 -1.135 3.28 c -1.358 6.748 2.759 13.39 9.407 15.175 c 2.173 0.582 4.483 0.568 6.673 0.07 c 1.99 -0.449 3.83 -1.405 5.341 -2.775 c 1.577 -1.451 2.707 -3.383 3.299 -5.436 C 78.722 69.326 78.902 67.512 78.757 65.709 L 78.757 65.709 z" style="stroke: none; stroke-width: 1; stroke-dasharray: none; stroke-linecap: butt; stroke-linejoin: miter; stroke-miterlimit: 10; fill: rgb(255,255,255); fill-rule: nonzero; opacity: 1;" transform=" matrix(1 0 0 1 0 0) " stroke-linecap="round"/>
</g>
</svg>